<svg width="31" height="30" viewBox="0 0 31 30" fill="none" xmlns="http://www.w3.org/2000/svg">
<path d="M9.37557 0.833252H21.6256C26.2922 0.833252 30.0839 4.51659 30.0839 9.04992V20.9499C30.0839 23.1291 29.1928 25.2191 27.6065 26.76C26.0203 28.3009 23.8689 29.1666 21.6256 29.1666H9.37557C4.7089 29.1666 0.917236 25.4833 0.917236 20.9499V9.04992C0.917236 6.87072 1.80838 4.78078 3.39462 3.23986C4.98087 1.69893 7.13228 0.833252 9.37557 0.833252V0.833252ZM9.0839 3.66659C7.69152 3.66659 6.35616 4.20391 5.37159 5.16034C4.38703 6.11678 3.8339 7.41398 3.8339 8.76658V21.2333C3.8339 24.0524 6.18182 26.3333 9.0839 26.3333H21.9172C23.3096 26.3333 24.645 25.7959 25.6295 24.8395C26.6141 23.8831 27.1672 22.5859 27.1672 21.2333V8.76658C27.1672 5.94742 24.8193 3.66659 21.9172 3.66659H9.0839ZM23.1568 5.79159C23.6403 5.79159 24.104 5.97815 24.4458 6.31025C24.7877 6.64235 24.9797 7.09276 24.9797 7.56242C24.9797 8.03207 24.7877 8.48249 24.4458 8.81459C24.104 9.14668 23.6403 9.33325 23.1568 9.33325C22.6734 9.33325 22.2097 9.14668 21.8678 8.81459C21.526 8.48249 21.3339 8.03207 21.3339 7.56242C21.3339 7.09276 21.526 6.64235 21.8678 6.31025C22.2097 5.97815 22.6734 5.79159 23.1568 5.79159ZM15.5006 7.91659C17.4344 7.91659 19.2891 8.66286 20.6566 9.99125C22.024 11.3196 22.7922 13.1213 22.7922 14.9999C22.7922 16.8785 22.024 18.6802 20.6566 20.0086C19.2891 21.337 17.4344 22.0833 15.5006 22.0833C13.5667 22.0833 11.712 21.337 10.3446 20.0086C8.97713 18.6802 8.2089 16.8785 8.2089 14.9999C8.2089 13.1213 8.97713 11.3196 10.3446 9.99125C11.712 8.66286 13.5667 7.91659 15.5006 7.91659V7.91659ZM15.5006 10.7499C14.3402 10.7499 13.2274 11.1977 12.407 11.9947C11.5865 12.7917 11.1256 13.8727 11.1256 14.9999C11.1256 16.1271 11.5865 17.2081 12.407 18.0051C13.2274 18.8022 14.3402 19.2499 15.5006 19.2499C16.6609 19.2499 17.7737 18.8022 18.5942 18.0051C19.4146 17.2081 19.8756 16.1271 19.8756 14.9999C19.8756 13.8727 19.4146 12.7917 18.5942 11.9947C17.7737 11.1977 16.6609 10.7499 15.5006 10.7499Z" fill="#10D878"/>
</svg>
