<svg width="28" height="34" viewBox="0 0 28 34" fill="none" xmlns="http://www.w3.org/2000/svg">
<path d="M26.3299 7.97531C24.7286 7.60255 23.2801 6.70238 22.1921 5.40398C21.1041 4.10558 20.4326 2.4757 20.274 0.748217V0H14.7321V23.2457C14.7332 24.2772 14.4278 25.2829 13.859 26.1203C13.2902 26.9578 12.4869 27.5845 11.5629 27.9118C10.6389 28.2391 9.64107 28.2504 8.71071 27.944C7.78036 27.6376 6.96465 27.029 6.37915 26.2046C5.8546 25.4748 5.53339 24.6042 5.45186 23.6913C5.37032 22.7783 5.53171 21.8594 5.91777 21.0385C6.30384 20.2176 6.89917 19.5274 7.63645 19.0459C8.37373 18.5645 9.22355 18.3111 10.0898 18.3143C10.5689 18.3114 11.0456 18.3859 11.5034 18.5354V12.5836C10.9706 12.5138 10.4337 12.4854 9.89703 12.4986C7.92013 12.5545 6.00153 13.2195 4.37618 14.4121C2.75083 15.6047 1.48927 17.2732 0.745995 19.2132C0.00271905 21.1533 -0.190016 23.2807 0.191391 25.3349C0.572798 27.3891 1.51179 29.281 2.89339 30.7789C4.30936 32.3029 6.12132 33.3469 8.09905 33.7782C10.0768 34.2096 12.131 34.0088 14.0007 33.2014C15.8704 32.394 17.4711 31.0165 18.5996 29.2438C19.728 27.4711 20.3332 25.3833 20.3382 23.2457V11.3423C22.5734 13.0325 25.2537 13.9366 28.0005 13.927V8.14536C27.4609 8.14771 26.9226 8.09072 26.3941 7.97531H26.3299Z" fill="#10D878"/>
</svg>
