<svg width="39" height="32" viewBox="0 0 39 32" fill="none" xmlns="http://www.w3.org/2000/svg">
<path d="M38.7698 3.73844C37.3441 4.37019 35.8125 4.79705 34.2024 4.98999C35.8637 3.99591 37.1066 2.43135 37.6992 0.58824C36.1383 1.51536 34.43 2.16794 32.6486 2.51763C31.4506 1.23854 29.8638 0.390736 28.1346 0.105848C26.4055 -0.17904 24.6306 0.114927 23.0856 0.942109C21.5406 1.76929 20.3119 3.08341 19.5903 4.68044C18.8687 6.27747 18.6945 8.06805 19.0949 9.7742C15.9321 9.6154 12.8381 8.79337 10.0137 7.36144C7.18922 5.92952 4.6974 3.91971 2.69996 1.46244C2.01698 2.64057 1.62427 4.00651 1.62427 5.46124C1.62351 6.77083 1.94601 8.06036 2.56316 9.21542C3.18031 10.3705 4.07302 11.3553 5.1621 12.0826C3.89906 12.0425 2.66389 11.7012 1.55939 11.0872V11.1897C1.55926 13.0264 2.19461 14.8066 3.35764 16.2283C4.52067 17.6499 6.13974 18.6254 7.94012 18.9892C6.76844 19.3063 5.54002 19.353 4.34765 19.1258C4.85561 20.7062 5.84507 22.0882 7.17751 23.0784C8.50996 24.0685 10.1187 24.6172 11.7785 24.6476C8.96088 26.8594 5.4812 28.0592 1.89917 28.0539C1.26465 28.0541 0.630666 28.017 0.000488281 27.9429C3.63646 30.2807 7.86898 31.5214 12.1917 31.5166C26.8245 31.5166 34.8239 19.3973 34.8239 8.88634C34.8239 8.54485 34.8153 8.19995 34.8 7.85847C36.3559 6.73323 37.6991 5.33983 38.7664 3.74357L38.7698 3.73844V3.73844Z" fill="#10D878"/>
</svg>
